<?xml version="1.0" encoding="utf-8"?>
<!-- Generator: Adobe Illustrator 16.0.0, SVG Export Plug-In . SVG Version: 6.00 Build 0)  -->
<!DOCTYPE svg PUBLIC "-//W3C//DTD SVG 1.1//EN" "http://www.w3.org/Graphics/SVG/1.1/DTD/svg11.dtd">
<svg version="1.1" id="Layer_1" xmlns="http://www.w3.org/2000/svg" xmlns:xlink="http://www.w3.org/1999/xlink" x="0px" y="0px"
	 width="595.279px" height="841.89px" viewBox="0 0 595.279 841.89" enable-background="new 0 0 595.279 841.89"
	 xml:space="preserve">
<g>
	<path d="M396.854,278.326H0v49.607h396.854c68.383,0,124.017-55.634,124.017-124.017S465.237,79.899,396.854,79.899
		s-124.017,55.634-124.017,124.017h49.606c0-41.025,33.385-74.41,74.41-74.41c41.024,0,74.409,33.385,74.409,74.41
		C471.263,244.94,437.878,278.326,396.854,278.326z"/>
	<path d="M471.263,377.539H0v49.607h471.263c41.025,0,74.41,33.385,74.41,74.41s-33.385,74.41-74.41,74.41
		c-41.024,0-74.409-33.385-74.409-74.41h-49.607c0,68.383,55.634,124.016,124.017,124.016S595.28,569.939,595.28,501.556
		S539.646,377.539,471.263,377.539z"/>
</g>
</svg>
