<?xml version="1.0" encoding="utf-8"?>
<!-- Generator: Adobe Illustrator 16.0.0, SVG Export Plug-In . SVG Version: 6.00 Build 0)  -->
<!DOCTYPE svg PUBLIC "-//W3C//DTD SVG 1.1//EN" "http://www.w3.org/Graphics/SVG/1.1/DTD/svg11.dtd">
<svg version="1.1" id="Layer_1" xmlns="http://www.w3.org/2000/svg" xmlns:xlink="http://www.w3.org/1999/xlink" x="0px" y="0px"
	 width="595.279px" height="841.89px" viewBox="0 0 595.279 841.89" enable-background="new 0 0 595.279 841.89"
	 xml:space="preserve">
<path d="M566.212,270.595c13.257-12.471,16.858-32.836,7.566-49.408c-10.93-19.52-35.729-26.508-55.26-15.561l-0.971,0.542
	c-7.644-3.227-15.769-5.245-24.091-5.971c4.888-17.918,3.607-37.61-5.173-55.569c-19.204-39.294-66.814-55.629-106.103-36.431
	c-12.061,5.899-22.252,14.614-29.854,25.329c-25.604-20.412-61.522-25.025-91.977-10.149
	c-41.551,20.311-59.558,69.737-41.497,111.776c-13.715,8.857-22.847,22.996-25.716,38.592c-0.762,0.97-1.607,1.857-2.315,2.863
	c-25.604-20.418-61.528-25.031-91.983-10.149c-41.538,20.311-59.552,69.737-41.491,111.782
	c-17.971,11.596-28.139,32.246-26.567,53.402c-13.923,11.697-18.686,31.83-10.34,48.891c2.298,4.709,5.411,8.727,9.055,12.049
	c-8.03,29.322,1.173,61.951,26.145,82.416c33.836,27.717,83.929,22.723,111.633-11.096c8.513-10.395,14.138-22.561,16.585-35.473
	c19.024,4.727,39.05,2.709,56.683-5.27c18.686,4.424,38.99,2.221,57.016-7.887c11.715-6.561,21.395-15.828,28.377-26.967
	c26.704,18.955,62.838,21.525,92.399,4.971c17.965-10.09,30.906-25.674,37.979-43.467c17.323,1.816,35.234-1.494,51.229-10.471
	c38.17-21.395,53.79-67.6,38.093-107.21c9.696-10.798,16.108-24.014,18.834-38.068C566.612,286.537,567.26,278.548,566.212,270.595z
	"/>
</svg>
