<?xml version="1.0" encoding="utf-8"?>
<!-- Generator: Adobe Illustrator 16.0.0, SVG Export Plug-In . SVG Version: 6.00 Build 0)  -->
<!DOCTYPE svg PUBLIC "-//W3C//DTD SVG 1.1//EN" "http://www.w3.org/Graphics/SVG/1.1/DTD/svg11.dtd">
<svg version="1.1" id="Layer_1" xmlns="http://www.w3.org/2000/svg" xmlns:xlink="http://www.w3.org/1999/xlink" x="0px" y="0px"
	 width="595.279px" height="841.89px" viewBox="0 0 595.279 841.89" enable-background="new 0 0 595.279 841.89"
	 xml:space="preserve">
<g display="none">
	<path display="inline" d="M215.236,120.329h0.16h70.339v-13.917c-11.905-4.495-18.501-13.942-18.501-32.437
		c0-4.31,1.053-7.221,3.726-7.221h50.879c3.304,0,5.435,2.964,5.435,7.221c0,19.073-11.774,28.276-17.728,32.591v13.763h68.779h0.16
		l-0.148,0.804l0.148,7.566c-2.619,4.661-9.155,8.078-19.287,8.506c-0.481,0.06-0.929,0.982-1.273,0.982h-1.917H308.01
		c0,0-0.506,2.333-0.929,7.768c-0.417,5.441-0.857,12.829-0.763,22.15c0.054,4.661,0.113,4.37,0.429,9.715
		c0.274,5.339,0.834,10.881,1.691,16.709c1.601,11.655,3.607,18.9,3.41,31.335c-0.047,6.215-0.5,12.423-1.387,18.543
		c-0.815,6.12-1.946,17.293-2.655,23.121c-0.731,5.828-1.202,11.507-1.244,16.847c-0.077,5.346,0.513,15.632,1.357,20.293
		c0.846,4.667,1.738,9.132,2.322,12.924c0.464,3.214,0.737,6.322,0.952,8.863c1.952,1.256,3.613,2.679,5.102,4.191l19.347-17.424
		l12.298,13.65l-23.757,21.412c0.095,1.06,0.16,2.131,0.16,3.221c0,2.851-0.452,5.208-1.363,7.179
		c2.572,1.346,4.423,4.024,4.423,7.138v4.339c0,3.423,0,6.34-5.952,7.53v42.295c5.952,1.179,5.952,4.095,5.952,7.536v4.34
		c0,2.916-0.125,5.459-3.929,6.875c4.917,0.357,9.882,5.346,9.882,10.508v2.25c0,5.352-5.06,14.096-10.144,14.096h4.071
		c5.68,0,10.287,1.221,10.287,7.756c0,3.537-1.375,4.965-3.524,6.715c15.739,10.227,26.65,26.074,28.669,45.094
		c0.227,2.113,0.345,3.951,0.345,6.131c0,34.871-22.703,52.164-66.194,52.164c-43.485,0-66.189-17.525-66.189-52.402
		c0-6.537,1.042-12.883,2.971-18.811c4.435-13.584,13.572-25.182,25.567-33.115c-2.363-1.732-3.905-2.025-3.905-5.77
		c0-6.535,4.602-7.762,10.28-7.762h4.072c-5.09,0-7.739-8.744-7.739-14.096v-2.25c0-5.352,2.649-13.418,7.732-13.418h0.155
		c-3.631,0-1.935-1.09-1.935-3.965v-4.34c0-3.436,0-6.352,5.953-7.536v-42.295c-5.953-1.185-5.953-4.102-5.953-7.53v-4.339
		c0-3,0.506-5.59,2.935-7c-0.958-1.994-2.083-4.393-2.083-7.328c0-10.375,3.429-20.394,13.334-26.198
		c0.202-2.44,0.31-5.352,0.714-8.114c0.584-3.792,1.411-8.06,2.257-12.727c0.839-4.661,1.381-14.852,1.31-20.198
		c-0.036-5.34-0.519-10.977-1.25-16.805c-0.709-5.828-1.857-16.989-2.673-23.109c-0.894-6.12-1.352-12.334-1.388-18.549
		c-0.202-12.43,1.804-19.722,3.417-31.377c0.852-5.828,1.405-11.459,1.685-16.805c0.322-5.34,0.375-5.25,0.435-9.911
		c0.096-9.322-0.345-16.317-0.768-21.758c-0.435-5.423-0.94-7.756-0.94-7.756h-47.135h-1.916c-0.34,0-0.798-0.815-1.28-0.869
		c-10.12-0.429-16.662-3.346-19.287-8.006l0.154-7.983L215.236,120.329z"/>
	<path display="inline" fill="none" stroke="#000000" stroke-miterlimit="10" d="M296.861,319.67"/>
	<g display="inline">
		<path d="M327.707,325.968c0,0,1.959-6.167,9.084-12.829c7.346-6.346,18.608-15.495,29.871-29.27
			c5.548-6.876,11.078-14.918,14.995-24.103c3.774-9.173,5.661-19.436,2.923-29.46c-0.416-1.238-0.72-2.512-1.202-3.756
			l-0.821-1.851l-0.399-0.935l-0.196-0.471l-0.107-0.238c0.072,0.113-0.279-0.572,0.125,0.178c-0.821-1.476-1.648-2.97-2.481-4.464
			c-0.751-1.006-1.334-2.018-2.155-3.107c-3.429-4.536-7.899-8.542-13.269-11.804c-10.722-6.62-24.99-9.852-40.074-10.245
			c-15.15-0.405-31.324,2.096-47.164,7.245c-7.923,2.583-15.799,5.816-23.317,9.876c-3.78,2-7.44,4.238-11.001,6.643
			c-1.619,1.072-3.69,2.619-5.523,3.911l-5.257,4.024c-14.09,11.162-27.133,24.52-37.336,40.223
			c-10.215,15.638-17.501,33.693-19.983,52.933c-2.75,19.215-0.363,39.396,5.875,58.653c0.738,2.417,1.56,4.822,2.482,7.203
			l1.321,3.59l1.501,3.381c1.047,2.465,2.131,4.864,3.327,6.828c1.155,2.101,2.238,4.221,3.715,6.256
			c5.398,8.31,12.269,15.68,20.257,21.752c15.966,12.334,36.271,18.732,56.915,21.703c10.411,1.227,20.966,1.971,31.598,1.631
			c10.637-0.125,20.638-1.439,30.139-4.834c9.417-3.494,18.025-8.846,25.312-15.977c7.411-6.994,13.584-15.531,19.507-24.395
			c5.911-8.887,11.572-18.239,18.091-27.276c6.548-9.012,14.155-17.739,23.645-24.531c9.548-6.715,20.466-11.257,32.021-12.989
			c4.904-0.81,11.477-1.315,17.024-0.887c5.732,0.369,11.459,1.363,16.906,3.179c10.995,3.417,20.751,9.715,28.847,17.299
			c8.114,7.614,14.495,16.638,19.615,26.056c19.847,38.175,20.197,82.804,6.048,118.859c-13.947,36.557-39.634,64.643-67.028,83.846
			c-27.646,19.209-56.921,30.162-83.269,36.271c-26.436,6.143-50.093,7.893-69.451,8.148c-19.388,0.25-34.573-0.977-44.89-1.916
			c-10.292-1.174-15.775-1.799-15.775-1.799l1.655-12.186c0,0,5.34,0.637,15.347,1.84c10.024,0.965,24.763,2.244,43.532,2.102
			c18.739-0.131,41.58-1.709,66.976-7.465c25.311-5.715,53.271-16.049,79.541-34.086c25.99-18.002,50.135-44.652,63.123-78.518
			c6.727-16.924,9.811-35.412,9.09-54.426c-0.768-18.906-5.244-38.289-14.411-55.558c-9.09-17.079-23.479-32.383-42.199-38.229
			c-4.602-1.547-9.43-2.381-14.305-2.708c-5.061-0.321-9.34-0.071-14.876,0.786c-9.656,1.44-19.175,5.339-27.3,11.066
			c-16.543,11.697-27.008,30.83-39.116,48.992c-6.113,9.102-12.697,18.281-21.02,26.15c-8.161,7.984-18.215,14.281-29.031,18.246
			c-10.846,3.898-22.496,5.334-33.526,5.436c-11.072,0.338-22.18-0.436-33.204-1.756c-21.889-3.162-43.95-10.025-61.796-23.783
			c-8.906-6.773-16.627-15.065-22.657-24.376c-6.196-9.483-10.209-19.483-13.507-29.776c-6.518-20.466-9.238-42.146-6.709-63.1
			c2.376-20.972,10.031-40.818,20.806-57.879c10.769-17.144,24.508-31.627,39.3-43.729c14.585-12.274,31.586-21.68,48.688-27.377
			c17.156-5.833,34.627-8.923,51.599-8.875c16.9,0.107,33.634,3.232,47.646,11.358c6.971,4.012,13.149,9.233,17.965,15.322
			c1.221,1.536,2.346,3.269,3.482,4.894c0.869,1.512,1.744,3.012,2.607,4.506c0.815,1.798,1.619,3.578,2.423,5.346
			c0.696,1.732,1.185,3.536,1.78,5.28c4.113,14.4,1.387,28.698-3.149,39.991c-4.708,11.399-11.001,20.608-17.103,28.389
			c-12.441,15.418-24.156,25.466-32.252,32.092c-8.155,6.542-12.978,9.691-12.978,9.691L327.707,325.968z"/>
	</g>
	<path display="inline" d="M240.582,610.792c-2.077-0.293-3.762-1.221-4.935-2.424l-1.863-0.232
		c-1.446,0.828-3.31,1.244-5.375,0.959c-1.988-0.285-3.632-1.131-4.798-2.262l-2.18-0.279c-1.422,0.75-3.226,1.113-5.196,0.838
		c-1.887-0.262-3.459-1.053-4.607-2.094l-2.631-0.34c-1.388,0.666-3.09,0.988-4.941,0.727c-1.773-0.25-3.268-0.982-4.435-1.924
		l-81.244-10.375c-5.113-0.709-18.269-0.512-22.799,2.791c0,0.756-0.042,1.525-0.143,2.299c-0.125,0.852-0.304,1.666-0.53,2.459
		c3.471,4.439,16.287,8.273,21.424,8.994l80.727,12.268c1.369-0.588,3.012-0.881,4.78-0.631c1.856,0.262,3.404,1.031,4.554,2.049
		l2.631,0.398c1.387-0.684,3.107-1.006,4.994-0.75c1.971,0.279,3.607,1.119,4.769,2.227l2.179,0.34
		c1.423-0.77,3.238-1.139,5.227-0.857c2.065,0.285,3.75,1.195,4.917,2.387l1.852,0.285c1.452-0.834,3.333-1.268,5.411-0.977
		c2.19,0.305,3.994,1.299,5.185,2.596l6.215,0.941c6.096,0.846,11.649-2.863,12.405-8.299s-3.56-10.531-9.661-11.375l-6.232-0.799
		C244.774,610.636,242.773,611.095,240.582,610.792z"/>
</g>
<g>
	<path d="M508.5,385.103c-5.119-9.417-11.501-18.441-19.614-26.055c-8.09-7.584-17.853-13.888-28.848-17.299
		c-5.447-1.81-11.174-2.804-16.906-3.179c-5.554-0.429-12.12,0.077-17.024,0.887c-11.555,1.738-22.473,6.274-32.021,12.989
		c-9.488,6.792-17.097,15.519-23.645,24.531c-6.519,9.037-12.18,18.388-18.091,27.276c-5.923,8.858-12.096,17.4-19.507,24.395
		c-7.18,7.031-15.656,12.311-24.925,15.805c-1.815-3.102-5.131-5.482-8.453-5.721c3.805-1.416,3.93-3.959,3.93-6.875v-4.34
		c0-3.436,0-6.352-5.953-7.537v-42.294c5.953-1.185,5.953-4.102,5.953-7.53v-4.333c0-3.113-1.852-5.798-4.43-7.149
		c0.911-1.97,1.363-4.328,1.363-7.179c0-1.089-0.071-2.155-0.16-3.22l23.764-21.413l-0.369-0.417
		c8.09-6.625,19.787-16.662,32.21-32.056c6.102-7.78,12.394-16.989,17.103-28.389c4.542-11.287,7.269-25.591,3.149-39.991
		c-0.596-1.744-1.084-3.548-1.78-5.28c-0.804-1.768-1.613-3.548-2.423-5.346c-0.869-1.494-1.738-2.994-2.607-4.506
		c-1.137-1.625-2.262-3.351-3.482-4.893c-4.815-6.09-10.994-11.311-17.965-15.322c-14.014-8.12-30.747-11.251-47.646-11.358
		c-5.679-0.018-11.423,0.447-17.186,1.119c-0.06-0.863-0.148-1.756-0.196-2.607c-0.321-5.339-0.375-5.054-0.429-9.715
		c-0.096-9.322,0.345-16.709,0.762-22.15c0.423-5.429,0.923-7.762,0.923-7.762h48.003h1.917c0.346,0,0.792-0.923,1.273-0.982
		c10.132-0.428,16.668-3.845,19.287-8.506l-0.148-7.566l0.155-0.804h-0.161h-68.784v-13.763
		c5.952-4.315,17.727-13.519,17.727-32.591c0-4.256-2.137-7.221-5.435-7.221h-50.878c-2.673,0-3.727,2.911-3.727,7.221
		c0,18.495,6.596,27.937,18.501,32.437v13.917h-70.332h-0.161l0.155,0.994l-0.155,7.982c2.625,4.667,9.174,7.578,19.287,8.007
		c0.482,0.06,0.935,0.875,1.28,0.875h1.916h47.135c0,0,0.512,2.333,0.929,7.768c0.429,5.441,0.869,12.436,0.768,21.758
		c-0.054,4.661-0.113,4.572-0.435,9.911c-0.113,2.167-0.304,4.417-0.506,6.673c-4.375,1.119-8.744,2.411-13.09,3.893
		c-17.103,5.697-34.104,15.103-48.688,27.377c-14.792,12.102-28.525,26.585-39.3,43.729c-10.775,17.061-18.431,36.907-20.806,57.879
		c-2.529,20.954,0.19,42.634,6.709,63.1c3.298,10.292,7.311,20.293,13.507,29.776c6.03,9.304,13.751,17.603,22.656,24.376
		c16.311,12.574,36.146,19.348,56.147,22.842c1.143,4.268,3.446,8.322,6.905,8.322h-4.072c-5.679,0-10.28,1.227-10.28,7.762
		c0,3.744,1.542,4.037,3.905,5.77c-11.995,7.934-21.133,19.531-25.567,33.115c-1.929,5.928-2.971,12.273-2.971,18.811
		c0,34.871,22.704,52.402,66.189,52.402c43.491,0,66.201-17.287,66.201-52.164c0-2.18-0.119-4.018-0.346-6.131
		c-2.024-19.02-12.936-34.867-28.669-45.094c2.144-1.75,3.524-3.178,3.524-6.715c0-6.535-4.602-7.756-10.286-7.756h-4.072
		c4.006,0,7.953-5.412,9.471-10.328c0.815-0.262,1.644-0.447,2.453-0.738c10.816-3.965,20.87-10.27,29.031-18.246
		c8.322-7.863,14.906-17.042,21.02-26.15c12.108-18.168,22.573-37.3,39.116-48.992c8.125-5.727,17.644-9.625,27.299-11.066
		c5.536-0.857,9.816-1.107,14.877-0.786c4.875,0.322,9.702,1.155,14.304,2.708c18.722,5.846,33.11,21.15,42.2,38.229
		c9.167,17.269,13.644,36.652,14.411,55.558c0.721,19.006-2.363,37.502-9.09,54.426c-12.989,33.865-37.128,60.516-63.123,78.518
		c-26.27,18.031-54.23,28.371-79.542,34.086c-25.395,5.756-48.235,7.328-66.975,7.465c-18.769,0.143-33.508-1.131-43.532-2.102
		c-7.066-0.852-11.751-1.404-13.924-1.666c-1.554-3.066-4.732-5.424-8.697-5.977l-6.232-0.799c-1.5,0.912-3.5,1.369-5.697,1.066
		c-2.077-0.293-3.762-1.221-4.935-2.424l-1.863-0.232c-1.446,0.828-3.31,1.244-5.375,0.959c-1.988-0.285-3.632-1.131-4.798-2.262
		l-2.179-0.279c-1.423,0.75-3.227,1.113-5.197,0.838c-1.887-0.262-3.459-1.053-4.607-2.094l-2.631-0.34
		c-1.388,0.666-3.09,0.988-4.941,0.727c-1.773-0.25-3.268-0.982-4.435-1.924l-81.244-10.375c-5.113-0.709-18.269-0.512-22.799,2.791
		c0,0.756-0.042,1.525-0.143,2.299c-0.125,0.852-0.304,1.666-0.53,2.459c3.471,4.439,16.287,8.273,21.424,8.994l80.727,12.268
		c1.369-0.588,3.012-0.881,4.78-0.631c1.856,0.262,3.404,1.031,4.554,2.049l2.631,0.398c1.387-0.684,3.107-1.006,4.994-0.75
		c1.971,0.279,3.607,1.119,4.769,2.227l2.179,0.34c1.423-0.77,3.238-1.137,5.227-0.857c2.065,0.285,3.75,1.195,4.917,2.387
		l1.852,0.285c1.452-0.832,3.333-1.268,5.411-0.977c2.19,0.305,3.994,1.299,5.185,2.596l6.215,0.941
		c3.149,0.434,6.144-0.363,8.417-1.965l-0.035,0.285c0,0,5.488,0.619,15.774,1.799c10.316,0.939,25.496,2.166,44.891,1.916
		c19.357-0.256,43.015-2.006,69.451-8.148c26.347-6.102,55.629-17.061,83.268-36.271c27.395-19.203,53.081-47.289,67.028-83.846
		C528.692,467.914,528.347,423.285,508.5,385.103z M299.986,193.607c15.09,0.387,29.359,3.619,40.08,10.245
		c5.369,3.262,9.84,7.268,13.269,11.804c0.827,1.095,1.405,2.107,2.155,3.107c0.768,1.387,1.541,2.768,2.298,4.137
		c-0.036-0.06,0.106,0.226,0.06,0.148l0.106,0.238l0.197,0.47l0.398,0.935l0.821,1.852c0.482,1.244,0.786,2.518,1.202,3.756
		c2.738,10.03,0.852,20.287-2.923,29.46c-3.91,9.185-9.446,17.227-14.995,24.103c-11.263,13.781-22.519,22.93-29.871,29.27
		c-0.231,0.22-0.416,0.429-0.637,0.649l-0.518-0.571l-19.347,17.43c-1.488-1.512-3.148-2.935-5.102-4.191
		c-0.214-2.542-0.488-5.655-0.952-8.864c-0.584-3.792-1.477-8.256-2.321-12.923c-0.846-4.661-1.429-14.947-1.357-20.293
		c0.041-5.34,0.512-11.019,1.244-16.847c0.708-5.828,1.845-17.001,2.654-23.121c0.888-6.12,1.346-12.328,1.388-18.543
		c0.196-12.436-1.816-19.68-3.411-31.335c-0.012-0.083-0.018-0.155-0.03-0.238C289.669,193.78,294.902,193.471,299.986,193.607z
		 M168.625,404.378c-1.477-2.036-2.56-4.155-3.715-6.256c-1.19-1.964-2.273-4.363-3.327-6.828l-1.501-3.381l-1.321-3.59
		c-0.916-2.381-1.744-4.786-2.482-7.203c-6.238-19.257-8.625-39.438-5.875-58.653c2.482-19.234,9.769-37.289,19.983-52.933
		c10.203-15.704,23.246-29.062,37.336-40.223l5.257-4.024c1.833-1.292,3.898-2.846,5.523-3.911
		c3.561-2.405,7.221-4.643,11.001-6.643c7.519-4.066,15.389-7.298,23.317-9.876c2.31-0.75,4.631-1.321,6.953-1.964
		c-1.447,9.227-2.929,16.144-2.751,26.913c0.042,6.215,0.494,12.43,1.388,18.549c0.815,6.12,1.964,17.281,2.673,23.109
		c0.732,5.828,1.22,11.465,1.25,16.805c0.071,5.34-0.471,15.537-1.31,20.198c-0.846,4.667-1.679,8.935-2.257,12.727
		c-0.398,2.756-0.506,5.673-0.714,8.114c-9.911,5.804-13.334,15.822-13.334,26.198c0,2.935,1.119,5.333,2.083,7.328
		c-2.423,1.405-2.935,4-2.935,7v4.34c0,3.423,0,6.339,5.953,7.53v42.294c-5.953,1.179-5.953,4.095-5.953,7.536v4.34
		c0,2.875-1.696,3.965,1.935,3.965h-0.154c-4.286,0-6.822,5.732-7.513,10.738c-17.96-3.375-35.271-9.625-49.254-20.436
		C180.888,420.058,174.018,412.688,168.625,404.378z"/>
</g>
</svg>
