<?xml version="1.0" encoding="utf-8"?>
<!-- Generator: Adobe Illustrator 16.0.0, SVG Export Plug-In . SVG Version: 6.00 Build 0)  -->
<!DOCTYPE svg PUBLIC "-//W3C//DTD SVG 1.1//EN" "http://www.w3.org/Graphics/SVG/1.1/DTD/svg11.dtd">
<svg version="1.1" id="Layer_1" xmlns="http://www.w3.org/2000/svg" xmlns:xlink="http://www.w3.org/1999/xlink" x="0px" y="0px"
	 width="595.279px" height="841.89px" viewBox="0 0 595.279 841.89" enable-background="new 0 0 595.279 841.89"
	 xml:space="preserve">
<path d="M16.107,446.503c-1.087,50.254,123.054,93.695,277.272,97.03c154.208,3.335,280.103-34.699,281.19-84.953l20.422-95.522
	c0.158-7.278-2.009-14.471-6.174-21.438c-18.684,47.289-140.854,80.45-292.74,77.165c-151.898-3.285-272.521-41.696-289.16-89.743
	c-4.439,6.781-6.909,13.873-7.066,21.151L16.107,446.503z"/>
<path d="M296.282,409.859c150.78,3.261,279.417-31.916,285.844-77.397c-13.349-15.186-50.166-62.449-50.166-62.449
	c-0.147-0.056-0.277-0.088-0.426-0.14c-3.403-4.764-9.64-9.365-18.637-13.729c1.846-2.484,3.086-5.024,3.143-7.667
	c0.11-5.088-26.439-40.345-32.777-45.145c0.002-0.113-0.021-0.204-0.029-0.31c1.165-0.439,2.382-0.867,3.481-1.325
	c0.216-0.871,0.359-1.725,0.378-2.6c0.545-25.156-82.358-47.336-185.182-49.56c-102.852-2.224-186.636,16.357-187.18,41.508
	c-0.019,0.875,0.087,1.734,0.271,2.614c1.085,0.506,2.283,0.985,3.41,1.474c-0.003,0.125-0.041,0.195-0.043,0.32
	c-6.577,4.55-34.583,38.58-34.692,43.674c-0.057,2.636,1.071,5.233,2.796,7.806c-9.143,3.959-15.565,8.287-19.178,12.887
	c-0.174,0.051-0.306,0.089-0.468,0.133c0,0-38.82,45.628-52.806,60.222C18.481,365.893,145.474,406.598,296.282,409.859z
	 M108.928,262.259c17.763,4.629,21.624,8.594,36.256,12.298l-4.726,12.896c-20.262-7.435-31.727-16.096-31.531-25.147
	C108.928,262.294,108.928,262.282,108.928,262.259z M489.818,270.496c0,0.023,0,0.035-0.001,0.047
	c-0.056,2.613-0.748,5.145-2.693,7.581c-6.877,4.65-15.063,10.094-27.031,15.373c-0.792,0.274-1.347,0.56-2.168,0.822l-4.914-13.104
	C467.795,278.14,477.823,274.481,489.818,270.496z M439.301,300.03c-32.41,6.951-87.3,10.711-123.023,10.642l0.387-17.854
	c35.721,0.212,85.339-2.394,119.098-7.541L439.301,300.03z M317.358,260.745l0.781-36.13c23.815,0.044,65.155-1.604,93.817-5.129
	l12.51,32.506C396.161,257.716,353.081,260.84,317.358,260.745z M287.601,260.102c-41.646-1.573-80.075-6.465-108.112-13.407
	l12.434-31.967c28.477,4.755,54.811,7.867,96.46,9.238L287.601,260.102z M286.907,292.174l-0.386,17.854
	c-53.547-1.861-93.328-7.669-125.407-16.014l5.656-14.555C200.287,286.062,245.26,290.714,286.907,292.174z M470.682,225.858
	c-0.106,4.94-4.518,9.567-12.199,13.73c-1.597,0.882-3.407,1.741-5.307,2.563c-3.396,1.493-7.113,2.925-11.376,4.261l-10.271-30.278
	c9.418-1.582,18.144-3.396,26.219-5.364C466.149,215.508,470.795,220.604,470.682,225.858z M169.518,210.475l-11.577,29.793
	c-4.165-1.5-7.792-3.085-11.109-4.706c-1.862-0.915-3.634-1.835-5.209-2.785c-7.53-4.509-11.755-9.334-11.648-14.286
	c0.114-5.255,4.978-10.145,13.575-14.515C151.538,206.292,160.177,208.475,169.518,210.475z"/>
<path d="M590.14,236.945c0,7.767-3.357,14.063-7.5,14.063h-89c-4.143,0-7.5-6.296-7.5-14.063l0,0c0-7.767,3.357-14.063,7.5-14.063
	h89C586.782,222.882,590.14,229.178,590.14,236.945L590.14,236.945z"/>
</svg>
