<?xml version="1.0" encoding="utf-8"?>
<!-- Generator: Adobe Illustrator 16.0.0, SVG Export Plug-In . SVG Version: 6.00 Build 0)  -->
<!DOCTYPE svg PUBLIC "-//W3C//DTD SVG 1.1//EN" "http://www.w3.org/Graphics/SVG/1.1/DTD/svg11.dtd">
<svg version="1.1" id="Layer_1" xmlns="http://www.w3.org/2000/svg" xmlns:xlink="http://www.w3.org/1999/xlink" x="0px" y="0px"
	 width="595.279px" height="841.89px" viewBox="0 0 595.279 841.89" enable-background="new 0 0 595.279 841.89"
	 xml:space="preserve">
<g>
	<g>
		<path d="M275.317,557.859V319.003l178.584-64.737v238.856L275.317,557.859z M290.199,329.421v207.604l148.819-54.32V275.102
			L290.199,329.421z"/>
	</g>
	<g>
		<path d="M116.823,258.731L31.996,156.79L210.58,92.053l84.827,101.198L116.823,258.731z M57.296,164.23l63.992,77.386
			l148.82-54.319l-63.993-77.386L57.296,164.23z"/>
	</g>
	<g>
		<path d="M290.199,328.677c-2.977,0-5.953-1.488-8.186-4.465c-2.232-3.72-2.232-8.185,0.744-11.905l69.945-84.083l191.233-69.945
			l-91.524,110.871l-11.161-9.673l56.552-68.457l-136.171,49.111l-67.713,81.106c1.488-1.488,1.488-4.464,0-5.953
			c-1.487-1.488-3.72-2.976-5.952-2.232l5.208,14.138C292.432,328.677,290.944,328.677,290.199,328.677z"/>
	</g>
	<g>
		
			<rect x="193.456" y="132.973" transform="matrix(-0.3417 -0.9398 0.9398 -0.3417 62.7679 484.0283)" width="14.882" height="174.118"/>
	</g>
	<g>
		<polygon points="290.199,558.603 111.615,485.681 111.615,339.094 126.497,339.094 126.497,475.265 275.317,536.281 
			275.317,329.421 116.079,263.94 122.032,250.546 290.199,319.003 		"/>
	</g>
	<g>
		<polygon points="209.092,384.484 29.02,310.818 114.591,251.29 123.521,263.196 60.272,307.842 207.604,368.114 278.293,318.259 
			287.223,330.165 		"/>
	</g>
	<g>
		<polygon points="449.437,271.381 443.484,257.987 500.78,234.92 480.689,226.735 486.642,212.597 540.961,234.92 		"/>
	</g>
	<g>
		<polygon points="441.251,210.365 356.424,176.136 284.99,197.715 280.526,182.833 357.912,159.766 446.46,196.227 		"/>
	</g>
	<g>
		
			<rect x="278.91" y="201.383" transform="matrix(-0.9256 -0.3786 0.3786 -0.9256 551.1177 526.0126)" width="96.728" height="14.881"/>
	</g>
</g>
</svg>
