<?xml version="1.0" encoding="utf-8"?>
<!-- Generator: Adobe Illustrator 16.0.0, SVG Export Plug-In . SVG Version: 6.00 Build 0)  -->
<!DOCTYPE svg PUBLIC "-//W3C//DTD SVG 1.1//EN" "http://www.w3.org/Graphics/SVG/1.1/DTD/svg11.dtd">
<svg version="1.1" id="Layer_1" xmlns="http://www.w3.org/2000/svg" xmlns:xlink="http://www.w3.org/1999/xlink" x="0px" y="0px"
	 width="595.279px" height="841.89px" viewBox="0 0 595.279 841.89" enable-background="new 0 0 595.279 841.89"
	 xml:space="preserve">
<g>
	<path d="M24.406,353.083c34.526-26.788,60.719-43.455,78.577-45.836s33.336-14.882,52.979-31.55
		c20.24-17.263,32.74-8.929,50.599-15.478c19.05-7.143,19.645-17.858,55.361-10.12c27.979,5.953,26.192,5.953,52.979,0.595
		c17.858-2.976,36.908,0,59.528,14.287c14.287,8.93,30.359,23.812,66.672,37.503c35.717,13.691,21.43,25.597,48.813,42.265
		c27.383,17.263,8.334,9.524,53.575,51.79c34.526,32.145,36.313,124.414,36.313,124.414s-23.812-13.691-49.408-22.621
		c-33.336-11.311-34.526,8.93-77.982,8.334c-46.432-0.596-50.599,6.549-62.504-2.381c-12.501-8.93-22.621-8.93-44.051-11.311
		c-14.287-1.785-29.765,5.953-52.979-19.049c-27.979-30.359-25.002-13.691-51.79-22.621c-26.192-8.93-34.526-13.691-59.527-43.455
		c-20.835-24.407-8.334-0.595-50.004-36.908C83.339,330.462,91.077,354.273,24.406,353.083z M104.77,335.225
		c38.692-5.953,105.959-14.287,134.533,0c9.524,2.977,14.286,45.837,8.929,90.482c23.216-29.763,14.287-80.958,10.12-86.91
		c0,0,33.336,8.929,39.884,13.691c8.929,5.953,23.216,52.385,18.453,100.008c23.216-32.146,9.524-81.554,3.572-94.055
		c-1.191-2.381,0.595-2.381,7.143-1.19c6.549,1.19,32.741,6.548,42.86,19.645c5.953,7.143,19.049,46.431-0.595,90.482
		c35.121-35.121,22.025-73.219,19.644-82.744c-2.381-9.524-1.19-5.357,7.144-2.381c30.955,15.477,54.766,55.957,48.813,102.984
		c23.216-55.361-14.287-89.888-14.287-89.888s16.072,3.572,31.55,11.905c15.478,8.334,45.241,38.693,64.29,76.791
		c0-19.645-26.787-61.908-51.789-82.148c14.287-1.19,30.954,0.595,50.004,10.12c-10.12-11.31-20.24-17.263-33.932-20.239
		c-13.691-2.381-24.406-0.595-30.954-2.381c-24.406-6.548-40.479-14.882-40.479-14.882c8.334-8.334,36.313-17.858,51.79-19.049
		c-41.075-7.739-55.957,9.524-61.314,10.715c-9.524,2.381-17.263-4.167-25.002-5.953c-5.952-1.19,3.572-11.311,9.524-15.478
		c13.691-8.929,27.383-14.882,39.289-16.668c-35.717-4.167-63.1,25.002-71.434,23.216c-12.501-2.381-25.598-7.144-42.86-10.12
		c-12.501-1.786-1.19-8.93,7.144-14.287c7.738-4.762,36.312-21.43,54.17-26.788c-49.408,0.595-66.076,19.645-76.791,26.192
		c-20.834,12.501-72.624-6.548-72.624-6.548s34.526-35.122,86.911-44.051c-73.814-2.381-80.958,35.122-116.675,36.907
		C177.989,313.199,123.223,325.105,104.77,335.225z"/>
</g>
</svg>
