<svg id="Layer_1" data-name="Layer 1" xmlns="http://www.w3.org/2000/svg" width="214.92" height="183.23" viewBox="0 0 214.92 183.23">
  <title>manaM</title>
  <path id="M" d="M205.25,198.37a35.11,35.11,0,0,1-35-34.81L169.92,114a10,10,0,0,1,10-10.1H180a10,10,0,0,1,10,10l.31,49.52a14.95,14.95,0,0,0,29.9-.14l-.31-109.45a18.69,18.69,0,0,0-34.77-9.47L142,117.24a10,10,0,0,1-8.58,4.92h-.06a10,10,0,0,1-8.58-4.82L80.25,44.24A18.78,18.78,0,0,0,45.43,54V163.39a14.91,14.91,0,1,0,29.81,0V116.55a10,10,0,0,1,20.08,0v46.84a35,35,0,1,1-70,0V54A38.86,38.86,0,0,1,97.4,33.8L133.2,92.62l34.65-58.47A38.77,38.77,0,0,1,240,53.8l.31,109.45a35,35,0,0,1-35,35.12Z" transform="translate(-25.35 -15.15)" style="fill: #fff"/>
</svg>
